
<svg version="1.1" xmlns="http://www.w3.org/2000/svg" xmlns:xlink="http://www.w3.org/1999/xlink" width="1282" height="722" viewBox="0,0,1282,722"><defs><linearGradient x1="727.74" y1="-142.1555" x2="747.72" y2="6.85" gradientUnits="userSpaceOnUse" id="color-1"><stop offset="0" stop-color="#afd9ff"/><stop offset="0.01" stop-color="#afd9ff"/><stop offset="1" stop-color="#f6a4a4"/></linearGradient><clipPath id="clip-1"><path d="M690.5,422.5v-95h145v95z" fill="none" fill-rule="nonzero"/></clipPath><clipPath id="clip-2"><path d="M692.5,422.5v-93h142v93z" fill="none" fill-rule="nonzero"/></clipPath><linearGradient x1="695.4" y1="335.412" x2="825.6" y2="410.588" gradientUnits="userSpaceOnUse" id="color-2"><stop offset="0" stop-color="#afd9ff"/><stop offset="0.01" stop-color="#afd9ff"/><stop offset="1" stop-color="#f6a4a4"/></linearGradient><linearGradient x1="-308.1397" y1="-93.1555" x2="-225.802" y2="32.631" gradientUnits="userSpaceOnUse" id="color-3"><stop offset="0" stop-color="#afd9ff"/><stop offset="0.01" stop-color="#afd9ff"/><stop offset="1" stop-color="#f6a4a4"/></linearGradient><linearGradient x1="728.86" y1="188.293" x2="824.38" y2="185.039" gradientUnits="userSpaceOnUse" id="color-4"><stop offset="0" stop-color="#afd9ff"/><stop offset="0.01" stop-color="#afd9ff"/><stop offset="1" stop-color="#ed7d31"/></linearGradient><linearGradient x1="-375.3875" y1="-68.303" x2="-275.612" y2="-10.697" gradientUnits="userSpaceOnUse" id="color-5"><stop offset="0" stop-color="#afd9ff"/><stop offset="0.01" stop-color="#afd9ff"/><stop offset="1" stop-color="#f6a4a4"/></linearGradient><linearGradient x1="-332.8343" y1="504.054" x2="-234.106" y2="435.402" gradientUnits="userSpaceOnUse" id="color-6"><stop offset="0" stop-color="#afd9ff"/><stop offset="0.01" stop-color="#afd9ff"/><stop offset="1" stop-color="#f6a4a4"/></linearGradient><linearGradient x1="743.93" y1="154.939" x2="742.83" y2="275.147" gradientUnits="userSpaceOnUse" id="color-7"><stop offset="0" stop-color="#afd9ff"/><stop offset="0.01" stop-color="#afd9ff"/><stop offset="1" stop-color="#f6a4a4"/></linearGradient><linearGradient x1="485.632" y1="-165.174" x2="467.542" y2="-92.3957" gradientUnits="userSpaceOnUse" id="color-8"><stop offset="0" stop-color="#afd9ff"/><stop offset="0.01" stop-color="#afd9ff"/><stop offset="1" stop-color="#f6a4a4"/></linearGradient><linearGradient x1="514.601" y1="-168.63019" x2="499.12" y2="-106.3484" gradientUnits="userSpaceOnUse" id="color-9"><stop offset="0" stop-color="#afd9ff"/><stop offset="0.01" stop-color="#afd9ff"/><stop offset="1" stop-color="#f6a4a4"/></linearGradient><linearGradient x1="203.521" y1="-118.9479" x2="286.479" y2="-71.052" gradientUnits="userSpaceOnUse" id="color-10"><stop offset="0" stop-color="#00b0f0"/><stop offset="0.01" stop-color="#00b0f0"/><stop offset="1" stop-color="#ed7d31"/></linearGradient><linearGradient x1="203.521" y1="-118.9479" x2="286.479" y2="-71.052" gradientUnits="userSpaceOnUse" id="color-11"><stop offset="0" stop-color="#00b0f0"/><stop offset="0.01" stop-color="#00b0f0"/><stop offset="1" stop-color="#ed7d31"/></linearGradient><linearGradient x1="-278.722" y1="-135.7225" x2="-198.277" y2="-89.2775" gradientUnits="userSpaceOnUse" id="color-12"><stop offset="0" stop-color="#afd9ff"/><stop offset="0.01" stop-color="#afd9ff"/><stop offset="1" stop-color="#f6a4a4"/></linearGradient><linearGradient x1="844.27" y1="-20.952" x2="748.21" y2="-136.5973" gradientUnits="userSpaceOnUse" id="color-13"><stop offset="0" stop-color="#afd9ff"/><stop offset="0.01" stop-color="#afd9ff"/><stop offset="1" stop-color="#f6a4a4"/></linearGradient><clipPath id="clip-3"><path d="M673.5,454.5v-95h145v95z" fill="none" fill-rule="nonzero"/></clipPath><clipPath id="clip-4"><path d="M675.5,454.5v-93h142v93z" fill="none" fill-rule="nonzero"/></clipPath><linearGradient x1="678.4" y1="367.412" x2="808.6" y2="442.588" gradientUnits="userSpaceOnUse" id="color-14"><stop offset="0" stop-color="#afd9ff"/><stop offset="0.01" stop-color="#afd9ff"/><stop offset="1" stop-color="#f6a4a4"/></linearGradient><clipPath id="clip-5"><path d="M-400.5,541.5v-722h1282v722z" fill="none" fill-rule="nonzero"/></clipPath></defs><g transform="translate(400.5,180.5)"><g clip-path="url(#clip-5)" data-paper-data="{&quot;isPaintingLayer&quot;:true}" stroke="none" stroke-width="1" stroke-linecap="butt" stroke-linejoin="miter" stroke-miterlimit="10" stroke-dasharray="" stroke-dashoffset="0" style="mix-blend-mode: normal"><path d="M-400,540v-720h1280v720z" fill="#dae3f3" fill-rule="nonzero"/><path d="M719.25,-134.4231c5.72,-4.4086 13.92,-3.3481 18.33,2.3688l62.4,80.9083c4.41,5.717 3.34,13.925 -2.37,18.334l-41.41,31.929c-5.71,4.409 -13.92,3.348 -18.33,-2.369l-62.39,-80.908c-4.41,-5.7169 -3.35,-13.9252 2.37,-18.3339z" fill="url(#color-1)" fill-rule="evenodd"/><g clip-path="url(#clip-1)"><g clip-path="url(#clip-2)"><path d="M699.32837,349.4953c0,-7.2718 5.89503,-13.16687 13.16693,-13.16687h101.6657c7.272,0 13.167,5.89507 13.167,13.16687v52.6662c0,7.2719 -5.895,13.1669 -13.167,13.1669h-101.6657c-7.2719,0 -13.16693,-5.895 -13.16693,-13.1669z" fill="#ff0000" fill-rule="evenodd"/></g></g><path d="M696.5,346.667c0,-7.272 5.9,-13.167 13.17,-13.167h101.66c7.27,0 13.17,5.895 13.17,13.167v52.666c0,7.272 -5.9,13.167 -13.17,13.167h-101.66c-7.27,0 -13.17,-5.895 -13.17,-13.167z" fill="url(#color-2)" fill-rule="evenodd"/><path d="M-312.4572,-82.5177c3.2542,-6.4444 11.1163,-9.0306 17.5602,-5.7765l91.204,46.0542c6.444,3.254 9.031,11.116 5.776,17.56l-23.567,46.673c-3.254,6.444 -11.117,9.031 -17.561,5.777l-91.2035,-46.054c-6.4443,-3.254 -9.0305,-11.117 -5.7764,-17.561z" fill="url(#color-3)" fill-rule="evenodd"/><path d="M784.79,146.213c-3.19,-0.013 -11.11,2.216 -21.63,8.778c-10.52,6.562 -16.01,12.694 -17.4,15.566c3.19,0.013 11.11,-2.216 21.63,-8.778c1.53,-0.952 2.89,-1.799 4.19,-2.731l2.17,3.479c0.9,1.443 2.69,1.858 4.14,0.958c1.44,-0.9 1.85,-2.691 0.95,-4.133l3.18,5.091c0.9,1.442 2.69,1.857 4.13,0.958c1.44,-0.9 1.86,-2.691 0.96,-4.133l5.82,9.333c0.9,1.443 2.69,1.858 4.13,0.958c1.45,-0.9 1.86,-2.691 0.96,-4.133zM759.19,201.543l-6.45,-10.352c-0.94,10.016 0.77,14.841 1.87,15.096c0.83,0.192 2.57,-1.365 4.58,-4.744zM788.95,143.62l31.75,50.91c2.33,3.734 -6.46,13.456 -19.52,21.606c-13.07,8.149 -25.67,11.763 -27.99,8.029l-9.53,-15.272c4.79,-5.932 7.88,-15.522 9.44,-21.329c0.17,-0.106 0.43,-0.265 0.6,-0.371c4.24,-2.646 5.52,-8.157 2.87,-12.399c-2.64,-4.243 -8.15,-5.52 -12.4,-2.874c-4.24,2.646 -5.52,8.157 -2.87,12.4c0.9,1.442 2.17,2.535 3.54,3.215c0.42,-1.208 0.83,-2.639 1.14,-4.017c-0.43,-0.318 -0.83,-0.774 -1.15,-1.283c-1.48,-2.376 -0.78,-5.407 1.6,-6.889c2.37,-1.482 5.4,-0.779 6.89,1.597c1.48,2.375 0.77,5.406 -1.6,6.888c-0.59,0.371 -1.21,0.518 -1.82,0.666c-2.61,10.937 -7.3,21.755 -12.3,24.877c-1.28,0.794 -2.64,1.058 -3.88,0.771c-6.48,-1.501 -5.4,-15.842 -4.72,-21.926c0.14,-0.911 0.24,-1.685 0.35,-2.459l-7.83,-12.557c-2.33,-3.734 6.37,-13.403 19.52,-21.606c13.16,-8.202 25.67,-11.763 27.91,-7.977z" fill="url(#color-4)" fill-rule="evenodd"/><path d="M-281.5,-51.833c0,0.597 -0.3,1.194 -0.7,1.592l-7.705,7.658c-0.901,0.895 -2.301,0.895 -3.202,0l-3.902,-3.78c-0.801,-0.795 -0.901,-2.088 -0.1,-2.983c0.9,-0.895 0.9,-2.387 0,-3.282c-0.901,-0.796 -2.202,-0.696 -3.0021,0.099c-0.9006,0.796 -2.2013,0.796 -3.1019,-0.099l-4.6027,-4.575l-28.7172,28.543l0.8005,0.796c0.9004,0.795 0.9004,2.188 0,3.083l-23.3141,23.172l-0.1,-0.099c-2.6016,1.889 -6.1037,1.491 -8.405,-0.696c-2.3015,-2.288 -2.6016,-5.769 -0.7005,-8.355l-0.1,-0.099l23.2139,-23.173c0.8005,-0.895 2.2013,-0.895 3.1018,0l0.8005,0.796l28.9174,-28.543c-0.8005,-1.591 -6.9042,-9.547 -13.0078,-11.636c0,0 -2.6016,-0.795 -4.0024,-1.293c-0.5003,-0.199 -0.8005,-0.597 -0.9006,-1.094c-0.1,-0.497 0.2001,-0.8949 0.6004,-1.1932c0.1001,0 0.2001,-0.0995 0.3002,-0.0995c11.0066,-2.9836 22.2133,-1.0939 27.8167,4.4757l9.3059,9.149c0.8,0.796 0.9,2.089 0.1,2.984c-0.901,0.895 -0.901,2.387 0,3.282c0.9,0.796 2.201,0.696 3.002,-0.099c0.9,-0.796 2.201,-0.796 3.101,0.099l3.803,3.779c0.5,0.398 0.7,0.995 0.7,1.591z" fill="url(#color-5)" fill-rule="evenodd"/><path d="M-301.1668,412.786l5.4528,10.963l0.278,5.988l-0.133,0.048l16.299,45.237l5.678,-1.971l1.342,3.725c-1.421,0.437 -2.144,1.976 -1.617,3.439c0.437,1.421 1.975,2.145 3.439,1.617l11.84,32.864l0.479,1.33l-0.133,0.048c0.72,3.875 -1.515,7.686 -5.24,9.028c-3.725,1.342 -7.877,-0.168 -9.794,-3.611l-0.133,0.048l-12.277,-34.285c1.421,-0.436 2.144,-1.975 1.617,-3.438c-0.437,-1.421 -1.975,-2.145 -3.439,-1.617l-1.39,-3.859l5.546,-1.923l-16.2985,-45.237l-0.133,0.048l-3.6046,-4.789l-2.8345,-11.831z" fill="url(#color-6)" fill-rule="evenodd"/><path d="M794.23,235.697c-3.72,4.398 -9.53,6.306 -15.06,5.065c-5.53,-1.242 -10,-5.492 -11.4,-11.019l-52.87,-14.684c-4,4.099 -10.02,5.435 -15.48,3.698c-5.51,-1.824 -9.42,-6.506 -10.34,-12.192l12.26,3.407l5.25,-5.148l-1.79,-7.029l-12.26,-3.406c3.71,-4.399 9.53,-6.306 15.05,-5.065c5.53,1.241 10,5.492 11.4,11.018l52.87,14.685c4,-4.099 10.02,-5.435 15.48,-3.698c5.52,1.824 9.43,6.506 10.34,12.191l-12.26,-3.406l-5.25,5.148l1.84,7.116z" fill="url(#color-7)" fill-rule="evenodd"/><path d="M489.413,-97.9276l-26.854,-24.6388c-1.128,-1.0283 -1.57,-2.566 -1.16,-4.0365l9.666,-35.1392c0.409,-1.4705 2.139,-1.9679 3.267,-0.9396l12.134,11.0784l-6.689,0.2585c-0.604,0.0696 -1.112,0.1118 -1.689,0.2776c-6.535,1.879 -9.046,11.9655 -5.73,23.4982c3.316,11.5328 10.801,18.7454 17.336,16.8664c0.481,-0.1382 1.03,-0.4002 1.579,-0.662l5.804,-3.3339l-4.396,15.8314c-0.41,1.4704 -2.14,1.9678 -3.268,0.9395z" fill="url(#color-8)" fill-rule="evenodd"/><path d="M493.129,-142.9058c-0.146,2.7475 0.23,5.865 1.142,9.0365c0.911,3.1715 2.249,6.0126 3.832,8.2627l8.398,-4.8079c-0.964,-1.9078 -1.86,-3.9392 -2.524,-6.2458c-0.663,-2.3065 -1.106,-4.5723 -1.178,-6.6326zM514.625,-143.7797c0.263,1.277 0.526,2.5541 0.885,3.8034c0.359,1.2495 0.815,2.4712 1.366,3.6653l8.755,-5.0146c-0.234,-0.4529 -0.372,-0.9334 -0.51,-1.414c-0.138,-0.4805 -0.181,-0.9887 -0.319,-1.4692zM478.821,-148.1564c0.288,-0.0829 0.673,-0.1935 0.989,-0.1802l54.913,-2.2624c1.524,-0.1261 3.162,1.5882 3.853,3.9908c0.69,2.4027 0.213,4.7248 -1.145,5.4277l-47.729,27.2499c-0.288,0.0829 -0.549,0.2619 -0.933,0.3724c-4.805,1.3817 -10.888,-5.2976 -13.623,-14.8121c-2.736,-9.5146 -1.13,-18.4045 3.675,-19.7861z" fill="url(#color-9)" fill-rule="evenodd"/><path d="M263.57,-112.9493c0,-4.1483 -3.33,-7.5883 -7.57,-7.5883c-4.138,0 -7.57,3.44 -7.57,7.5883c0,4.1482 3.331,7.5882 7.57,7.5882c4.139,0 7.57,-3.44 7.57,-7.5882zM277.5,-115.4788v5.0588l-4.441,2.2259c-0.404,1.3154 -1.01,2.7318 -1.716,3.946l1.615,4.7552l-3.634,3.5412l-4.744,-1.6188c-1.211,0.7082 -2.524,1.2141 -3.937,1.6188l-2.22,4.4518h-5.047l-2.221,-4.4518c-1.413,-0.4047 -2.725,-0.9106 -3.937,-1.6188l-4.744,1.6188l-3.533,-3.5412l1.615,-4.7552c-0.706,-1.2142 -1.211,-2.5295 -1.615,-3.946l-4.441,-2.2259v-5.0588l4.441,-2.2259c0.404,-1.4165 0.909,-2.7317 1.615,-3.9458l-1.615,-4.7554l3.634,-3.6423l4.744,1.6188c1.212,-0.7082 2.524,-1.2141 3.937,-1.6188l2.221,-4.4518h5.047l2.22,4.4518c1.413,0.4047 2.725,0.9106 3.937,1.6188l4.744,-1.6188l3.634,3.6423l-1.615,4.7554c0.706,1.2141 1.211,2.5293 1.615,3.9458z" fill="url(#color-10)" fill-rule="evenodd"/><path d="M233.5,-69.039c4.141,0 7.394,-3.36 7.394,-7.412c0,-4.0513 -3.253,-7.4113 -7.394,-7.4113c-4.042,0 -7.394,3.2611 -7.394,7.4113c0,4.052 3.253,7.412 7.394,7.412zM250.162,-81.0953l4.338,2.1741v4.9412l-4.338,2.174c-0.394,1.384 -0.887,2.668 -1.577,3.854l1.478,4.546l-3.45,3.558l-4.634,-1.581c-1.183,0.691 -2.465,1.185 -3.845,1.581l-2.169,4.348h-4.93l-2.169,-4.348c-1.38,-0.396 -2.662,-0.89 -3.845,-1.581l-4.634,1.482l-3.45,-3.459l1.478,-4.645c-0.69,-1.185 -1.183,-2.47 -1.577,-3.854l-4.338,-2.174v-4.941l4.338,-2.174c0.394,-1.2848 0.887,-2.6683 1.577,-3.8542l-1.478,-4.6448l3.45,-3.4588l4.634,1.5812c1.183,-0.6918 2.465,-1.1859 3.845,-1.5812l2.169,-4.3482h4.93l2.169,4.3482c1.282,0.3953 2.662,0.8894 3.845,1.5812l4.634,-1.5812l3.549,3.5577l-1.577,4.6447c0.69,1.1858 1.183,2.4706 1.577,3.8541z" fill="url(#color-11)" fill-rule="evenodd"/><path d="M-226.568,-112.5c0,-6.6 -5.392,-12 -11.982,-12c-6.59,0 -11.982,5.4 -11.982,12c0,6.6 5.392,12 11.982,12c6.59,0 11.982,-5.4 11.982,-12zM-204.5,-116.5999v8l-6.99,3.4999c-0.599,2.2 -1.497,4.3001 -2.596,6.3001l2.496,7.4999l-5.691,5.7001l-7.489,-2.5001c-1.897,1.1 -3.994,2 -6.191,2.6l-3.495,7h-7.988l-3.495,-7c-2.197,-0.6 -4.294,-1.5 -6.291,-2.6l-7.489,2.5001l-5.691,-5.7001l2.496,-7.4999c-1.098,-1.9001 -1.997,-4 -2.596,-6.2001l-6.99,-3.5v-8l6.99,-3.4c0.599,-2.2 1.498,-4.2999 2.596,-6.2999l-2.496,-7.5001l5.691,-5.6999l7.489,2.4999c1.897,-1.0999 3.994,-2 6.191,-2.6l3.495,-7h7.988l3.395,7c2.197,0.6 4.294,1.5001 6.291,2.6l7.489,-2.4999l5.692,5.6999l-2.497,7.5001c1.099,1.8999 1.997,4 2.596,6.2z" fill="url(#color-12)" fill-rule="evenodd"/><path d="M847.35,-32.011c-2.5,6.772 -10.02,10.232 -16.79,7.729l-95.84,-35.421c-6.77,-2.503 -10.23,-10.021 -7.72,-16.793l18.12,-49.0428c2.5,-6.7716 10.02,-10.2321 16.79,-7.7293l95.84,35.4213c6.77,2.5029 10.23,10.0213 7.73,16.7929z" fill="url(#color-13)" fill-rule="evenodd"/><text transform="translate(-399.5,-157.3)" font-size="84.208" xml:space="preserve" fill-opacity="0" fill="#000000" fill-rule="nonzero" stroke="none" stroke-width="1" stroke-linecap="butt" stroke-linejoin="miter" stroke-miterlimit="10" stroke-dasharray="" stroke-dashoffset="0" font-family="Arial,Arial_MSFontService,sans-serif" font-weight="400" text-anchor="start" style="mix-blend-mode: normal"><tspan x="0" dy="0">Nikov</tspan></text><g clip-path="url(#clip-3)"><g clip-path="url(#clip-4)"><path d="M682.32837,381.4953c0,-7.2718 5.89503,-13.16687 13.16693,-13.16687h101.6657c7.272,0 13.167,5.89507 13.167,13.16687v52.6662c0,7.2719 -5.895,13.1669 -13.167,13.1669h-101.6657c-7.2719,0 -13.16693,-5.895 -13.16693,-13.1669z" fill="#ff0000" fill-rule="evenodd"/></g></g><path d="M679.5,378.667c0,-7.272 5.9,-13.167 13.17,-13.167h101.66c7.27,0 13.17,5.895 13.17,13.167v52.666c0,7.272 -5.9,13.167 -13.17,13.167h-101.66c-7.27,0 -13.17,-5.895 -13.17,-13.167z" fill="url(#color-14)" fill-rule="evenodd"/><g fill="#bfbfbf" fill-rule="nonzero" font-family="Sans Serif" font-weight="normal" font-size="40" text-anchor="start"><text transform="translate(251.26126,375.8208) scale(1.82375,1.83395)" font-size="40" xml:space="preserve" fill="#bfbfbf" fill-rule="nonzero" stroke="none" stroke-width="1" stroke-linecap="butt" stroke-linejoin="miter" stroke-miterlimit="10" stroke-dasharray="" stroke-dashoffset="0" font-family="Sans Serif" font-weight="normal" text-anchor="start" style="mix-blend-mode: normal"><tspan x="0" dy="0">橙 ICP 备案</tspan></text><text transform="translate(250.25526,373.3133) scale(1.82375,1.83395)" font-size="40" xml:space="preserve" fill="#bfbfbf" fill-rule="nonzero" stroke="none" stroke-width="1" stroke-linecap="butt" stroke-linejoin="miter" stroke-miterlimit="10" stroke-dasharray="" stroke-dashoffset="0" font-family="Sans Serif" font-weight="normal" text-anchor="start" style="mix-blend-mode: normal"><tspan x="0" dy="0">橙 ICP 备案</tspan></text></g></g></g></svg>
